<?xml version="1.0" encoding="UTF-8"?>
<svg version="1.1" xmlns="http://www.w3.org/2000/svg" width="211" height="207">
<path d="M0 0 C0.57363281 0.5259375 1.14726562 1.051875 1.73828125 1.59375 C1.73828125 2.25375 1.73828125 2.91375 1.73828125 3.59375 C2.58326172 3.94179688 2.58326172 3.94179688 3.4453125 4.296875 C17.40872498 12.19440983 26.46117862 32.25564158 31.73828125 46.59375 C31.73828125 47.58375 31.73828125 48.57375 31.73828125 49.59375 C32.72828125 49.92375 33.71828125 50.25375 34.73828125 50.59375 C34.07828125 50.59375 33.41828125 50.59375 32.73828125 50.59375 C32.95049316 51.36468994 33.16270508 52.13562988 33.38134766 52.92993164 C35.54956825 61.41419024 36.19696192 69.29591833 36.11328125 78.03125 C36.12488281 79.23845703 36.13648438 80.44566406 36.1484375 81.68945312 C36.06792169 106.77012877 25.60039213 129.34113544 8.2109375 147.1875 C-4.42374552 159.20992966 -19.34742425 167.38338269 -36.01171875 172.40625 C-36.69661377 172.6134668 -37.38150879 172.82068359 -38.0871582 173.03417969 C-64.2004234 180.46914128 -95.26880543 176.57571683 -118.95458984 163.62109375 C-124.70059251 160.35451995 -130.13885336 156.77641892 -135.26171875 152.59375 C-136.77765625 151.418125 -136.77765625 151.418125 -138.32421875 150.21875 C-144.470648 144.7261962 -149.18540542 138.48156597 -153.68359375 131.59765625 C-155.18449992 129.3141224 -155.18449992 129.3141224 -158.26171875 128.59375 C-158.36871094 127.73394531 -158.47570312 126.87414062 -158.5859375 125.98828125 C-159.30276889 122.38755019 -160.50661171 119.59505223 -162.07421875 116.28125 C-164.51831584 110.8723153 -166.23976621 105.50095264 -167.57421875 99.71875 C-167.73317627 99.02998779 -167.89213379 98.34122559 -168.0559082 97.6315918 C-173.52412219 72.63533049 -169.4727465 47.04368778 -156.0390625 25.26171875 C-153.31938315 21.17921107 -150.42096563 17.34493998 -147.26171875 13.59375 C-146.61847656 12.80484375 -145.97523438 12.0159375 -145.3125 11.203125 C-127.55003093 -9.67844677 -103.16219575 -20.73576375 -76.13671875 -23.125 C-48.10981331 -25.15921088 -22.48391599 -16.64969803 0 0 Z " fill="#262724" transform="translate(175.26171875,26.40625)"/>
<path d="M0 0 C0.67817339 -0.00186373 1.35634678 -0.00372746 2.05507088 -0.00564766 C10.35116265 -0.01931055 10.35116265 -0.01931055 13.37890625 0.15234375 C14.9101431 1.6835806 14.62197732 3.08447199 14.69140625 5.21484375 C14.60253101 10.30497085 13.46220595 14.07553637 10.37890625 18.15234375 C3.81928777 24.33559068 -1.2424655 25.30800099 -10.10546875 25.25 C-10.92106262 25.24858505 -11.73665649 25.2471701 -12.57696533 25.24571228 C-15.17504587 25.24012678 -17.77303938 25.22757696 -20.37109375 25.21484375 C-22.13541542 25.20982687 -23.89973844 25.20526429 -25.6640625 25.20117188 C-29.98310631 25.1901621 -34.30208529 25.17290744 -38.62109375 25.15234375 C-38.48228509 26.97887807 -38.48228509 26.97887807 -37.62109375 29.15234375 C-36.36993774 30.07756836 -36.36993774 30.07756836 -35.09350586 31.02148438 C-31.04518995 36.14793872 -31.9666414 41.94328648 -32.0625 48.24609375 C-32.06675414 49.63944048 -32.06907913 51.03279432 -32.06956482 52.42614746 C-32.07572002 55.34155571 -32.09836713 58.25619256 -32.1340332 61.17138672 C-32.1793052 64.90047646 -32.19405994 68.62886851 -32.19777012 72.3582077 C-32.20220806 75.2339358 -32.21752828 78.1095188 -32.23664665 80.98518372 C-32.2454998 82.35983594 -32.25224382 83.73450348 -32.25680733 85.10917664 C-32.26589349 87.0331462 -32.28998865 88.95702702 -32.31469727 90.88085938 C-32.33065697 92.5203656 -32.33065697 92.5203656 -32.34693909 94.19299316 C-32.76476754 98.70322424 -33.71885661 101.31950947 -37.05859375 104.40234375 C-40.39397935 106.68016806 -42.86936444 107.27907452 -46.81640625 107.28515625 C-47.61433594 107.28644531 -48.41226563 107.28773438 -49.234375 107.2890625 C-50.06324219 107.28519531 -50.89210937 107.28132813 -51.74609375 107.27734375 C-53.00099609 107.28314453 -53.00099609 107.28314453 -54.28125 107.2890625 C-60.49444501 107.27899249 -60.49444501 107.27899249 -61.62109375 106.15234375 C-61.71613626 103.62693373 -61.74666533 101.12897249 -61.73461914 98.60327148 C-61.73476517 97.81308624 -61.73491119 97.022901 -61.73506165 96.20877075 C-61.73436232 93.58446553 -61.72656902 90.96023039 -61.71875 88.3359375 C-61.71688589 86.5213271 -61.71546195 84.70671619 -61.71446228 82.8921051 C-61.71063654 78.10644145 -61.70080579 73.32080795 -61.6897583 68.53515625 C-61.67954538 63.65560311 -61.67496492 58.77604511 -61.66992188 53.89648438 C-61.65918357 44.31509089 -61.64210648 34.73371982 -61.62109375 25.15234375 C-63.3853772 25.16019897 -63.3853772 25.16019897 -65.18530273 25.16821289 C-69.53311406 25.18626038 -73.88092205 25.19777483 -78.22875977 25.20727539 C-80.11353105 25.21231619 -81.9982984 25.21914873 -83.88305664 25.2277832 C-86.58611011 25.23985992 -89.28911206 25.24557443 -91.9921875 25.25 C-92.84010361 25.25516129 -93.68801971 25.26032257 -94.56163025 25.26564026 C-96.58180443 25.2658357 -98.60187309 25.21440586 -100.62109375 25.15234375 C-102.1720019 23.6014356 -101.82786686 22.11538142 -101.87109375 19.96484375 C-101.77656971 14.00037685 -100.06856035 10.66713438 -95.93359375 6.33984375 C-88.84064765 1.65582274 -78.55932729 2.77428158 -70.2734375 2.3984375 C-68.85697611 2.33267621 -67.44051805 2.26684313 -66.02406311 2.20094299 C-63.04779956 2.06337205 -60.07142752 1.92848638 -57.0949707 1.79516602 C-54.11165836 1.66117629 -51.12862626 1.52255781 -48.14575195 1.37915039 C-32.09628863 0.60844201 -16.06997186 0.01641483 0 0 Z " fill="#FFFFFF" transform="translate(162.62109375,65.84765625)"/>
<path d="M0 0 C4.57600216 3.73292214 8.95341959 7.69887662 13 12 C13 12.66 13 13.32 13 14 C10.98828125 15.54296875 10.98828125 15.54296875 8.3125 17.1875 C7.00732422 18.01314453 7.00732422 18.01314453 5.67578125 18.85546875 C2.49489709 20.21605132 1.22531394 20.16382687 -2 19 C-3.96484375 17.6171875 -3.96484375 17.6171875 -5.9375 15.875 C-22.72759043 2.33729464 -42.07202992 -0.67873422 -63 1 C-78.85480579 3.01998853 -94.08151601 12.58455879 -104.2109375 24.62890625 C-110.84746463 33.3007995 -114.77368201 42.64182119 -118 53 C-123.28 53 -128.56 53 -134 53 C-132.34070865 35.5002645 -122.87862754 21.43510379 -111 9 C-110.45988281 8.38511719 -109.91976562 7.77023438 -109.36328125 7.13671875 C-81.71565741 -23.15727714 -31.89296296 -22.65642953 0 0 Z " fill="#6EB366" transform="translate(161,39)"/>
<path d="M0 0 C2.16874252 0.50603992 3.99967627 0.99983813 6 2 C6 2.66 6 3.32 6 4 C6.56332031 4.23203125 7.12664062 4.4640625 7.70703125 4.703125 C21.67044373 12.60065983 30.72289737 32.66189158 36 47 C36 47.99 36 48.98 36 50 C36.99 50.33 37.98 50.66 39 51 C38.34 51 37.68 51 37 51 C37.21221191 51.77093994 37.42442383 52.54187988 37.64306641 53.33618164 C39.811287 61.82044024 40.45868067 69.70216833 40.375 78.4375 C40.38660156 79.64470703 40.39820313 80.85191406 40.41015625 82.09570312 C40.3719188 94.00666921 38.54406509 105.36214921 33 116 C31.68327285 112.04981854 32.65483489 110.13831047 33.875 106.1875 C41.51647306 81.25919804 38.03257915 53.87546169 26 31 C19.35907796 19.30803767 10.34950409 9.50959225 0 1 C0 0.67 0 0.34 0 0 Z " fill="#14130E" transform="translate(171,26)"/>
<path d="M0 0 C3.52201142 3.44653975 6.76794632 7.02525521 10 10.75 C23.45987994 25.67735362 41.97445747 33.7376159 61 39 C61 39.33 61 39.66 61 40 C55.63818027 40.27673908 51.38511465 39.44370575 46.4375 37.5 C45.40302734 37.10167969 45.40302734 37.10167969 44.34765625 36.6953125 C34.08382323 32.59729858 24.5637467 26.99204731 16 20 C14.4840625 18.824375 14.4840625 18.824375 12.9375 17.625 C9.27831717 14.35509194 6.11106803 10.78902475 3 7 C2.15501953 5.98099609 2.15501953 5.98099609 1.29296875 4.94140625 C0 3 0 3 0 0 Z " fill="#18150F" transform="translate(24,159)"/>
<path d="M0 0 C0 0.33 0 0.66 0 1 C-0.5983667 1.12528076 -1.1967334 1.25056152 -1.81323242 1.37963867 C-18.27739652 4.86600013 -32.19039588 8.64378281 -46.19921875 18.20703125 C-49 20 -49 20 -51 20 C-49.52672461 15.23352081 -45.61830586 13.71112686 -41.5 11.5 C-40.77458008 11.10345215 -40.04916016 10.7069043 -39.30175781 10.29833984 C-26.80870398 3.56767231 -14.3541838 -0.76291922 0 0 Z " fill="#191710" transform="translate(97,5)"/>
<path d="M0 0 C0.66 0.33 1.32 0.66 2 1 C1.29875 1.825 0.5975 2.65 -0.125 3.5 C-10.03576629 15.44900169 -16.69301497 28.03889412 -21 43 C-21.33 43 -21.66 43 -22 43 C-21.72684551 27.70334836 -12.0697911 12.38491027 -1.69921875 1.609375 C-0.85810547 0.81273437 -0.85810547 0.81273437 0 0 Z " fill="#16140F" transform="translate(31,37)"/>
<path d="M0 0 C2.78685154 2.78685154 3.21224819 6.04185971 4.1875 9.75 C6.2039359 17.06386544 8.95158321 23.47760973 12.546875 30.14453125 C13.74694776 32.50273875 14.52525022 34.42010974 15 37 C12.0625 35.875 12.0625 35.875 9 34 C8.62301271 32.00776716 8.29765391 30.00562042 8 28 C7.07984337 25.66339234 6.09671073 23.3509125 5.0625 21.0625 C1.85535215 13.94688696 -0.32157161 7.87850436 0 0 Z " fill="#15130E" transform="translate(8,121)"/>
<path d="M0 0 C0 3 0 3 -1.58984375 4.7265625 C-6.99926182 9.10090057 -12.57165001 12.63857102 -18.6875 15.9375 C-19.7556897 16.52168701 -19.7556897 16.52168701 -20.84545898 17.11767578 C-25.2917131 19.4365183 -28.99694929 20.58690407 -34 21 C-30.49484508 18.09394044 -26.58039524 16.25678471 -22.5 14.3125 C-14.59142393 10.45867568 -6.27321864 6.27321864 0 0 Z " fill="#15120D" transform="translate(178,175)"/>
<path d="M0 0 C1 3 1 3 0.13671875 5.2421875 C-4.7180881 14.06197137 -10.60536171 23.06301034 -18 30 C-18.99 29.67 -19.98 29.34 -21 29 C-20.05125 28.154375 -19.1025 27.30875 -18.125 26.4375 C-10.60070584 18.94385469 -5.16275714 9.209884 0 0 Z " fill="#14120E" transform="translate(202,143)"/>
<path d="M0 0 C6.86002488 0.41049631 11.69592627 2.47756984 17.6875 5.75 C18.51572266 6.18054688 19.34394531 6.61109375 20.19726562 7.0546875 C24.86924575 9.55339264 28.48840012 12.02352437 32 16 C28.28605897 15.45193579 26.00020906 14.54507744 23 12.3125 C15.93976183 7.39639456 7.98078781 4.13319818 0 1 C0 0.67 0 0.34 0 0 Z " fill="#14130E" transform="translate(139,9)"/>
<path d="M0 0 C0.66 0 1.32 0 2 0 C2 8.58 2 17.16 2 26 C-2.90038307 21.09961693 -1.11986005 10.67102422 -1.1328125 4.09765625 C-1 1 -1 1 0 0 Z " fill="#1D1A17" transform="translate(6,94)"/>
<path d="M0 0 C-4.42275547 2.20946643 -8.52682929 2.26086051 -13.36328125 2.1953125 C-14.15526413 2.1924826 -14.94724701 2.18965271 -15.76322937 2.18673706 C-18.27980999 2.17558863 -20.79602789 2.15049422 -23.3125 2.125 C-25.02408338 2.11496329 -26.73567237 2.10583864 -28.44726562 2.09765625 C-32.63164906 2.07566681 -36.81576314 2.04117408 -41 2 C-40.2575 3.1446875 -40.2575 3.1446875 -39.5 4.3125 C-38 7 -38 7 -38 10 C-39.98 7.69 -41.96 5.38 -44 3 C-43.67 2.34 -43.34 1.68 -43 1 C-41.90010742 0.97494385 -40.80021484 0.9498877 -39.66699219 0.92407227 C-35.58175235 0.82981794 -31.49667539 0.72964135 -27.41162109 0.62768555 C-25.64440728 0.58440486 -23.8771535 0.54272495 -22.10986328 0.50268555 C-19.5679114 0.44481649 -17.02615941 0.38117019 -14.484375 0.31640625 C-13.30134796 0.29133751 -13.30134796 0.29133751 -12.09442139 0.26576233 C-7.94650975 0.17803635 -7.94650975 0.17803635 -3.88433838 -0.57533264 C-2 -1 -2 -1 0 0 Z " fill="#050402" transform="translate(167,90)"/>
<path d="M0 0 C0.66 0.66 1.32 1.32 2 2 C-1.85389095 3.38740074 -5.00839431 2.57479122 -9 2 C-11.97630932 1.75497126 -14.95533889 1.59337989 -17.9375 1.4375 C-18.71673828 1.39431641 -19.49597656 1.35113281 -20.29882812 1.30664062 C-22.19907117 1.20171923 -24.09951669 1.1004755 -26 1 C-26 0.67 -26 0.34 -26 0 C-17.55798099 -1.94104817 -8.50431828 -1.37166424 0 0 Z " fill="#1E1B10" transform="translate(124,4)"/>
<path d="M0 0 C0.33 0.66 0.66 1.32 1 2 C0.0390625 4.2421875 0.0390625 4.2421875 -1.375 6.875 C-2.99831412 9.91304598 -4.3225 12.61250002 -5 16 C-5.66 16 -6.32 16 -7 16 C-7.33 16.99 -7.66 17.98 -8 19 C-7.70302239 12.31800388 -4.80528873 4.80528873 0 0 Z " fill="#131111" transform="translate(53,68)"/>
<path d="M0 0 C5.44208234 0.34013015 8.93668198 3.70296528 13 7 C12.01 7.33 11.02 7.66 10 8 C7.51953125 6.6015625 7.51953125 6.6015625 4.8125 4.625 C3.91144531 3.97789063 3.01039063 3.33078125 2.08203125 2.6640625 C1.39496094 2.11492188 0.70789063 1.56578125 0 1 C0 0.67 0 0.34 0 0 Z " fill="#1B1913" transform="translate(158,17)"/>
<path d="M0 0 C0.99 0.33 1.98 0.66 3 1 C-0.3 3.97 -3.6 6.94 -7 10 C-7.33 9.01 -7.66 8.02 -8 7 C-6.74057614 5.80040625 -5.46704714 4.61560557 -4.1875 3.4375 C-3.12595703 2.44556641 -3.12595703 2.44556641 -2.04296875 1.43359375 C-1.36878906 0.96050781 -0.69460937 0.48742187 0 0 Z " fill="#15140E" transform="translate(42,26)"/>
<path d="M0 0 C0.99 0 1.98 0 3 0 C4.640625 1.64453125 4.640625 1.64453125 6.25 3.8125 C6.79140625 4.52019531 7.3328125 5.22789063 7.890625 5.95703125 C8.25671875 6.63121094 8.6228125 7.30539063 9 8 C8.67 8.99 8.34 9.98 8 11 C6.66375099 9.35653302 5.33107149 7.71016314 4 6.0625 C3.2575 5.14597656 2.515 4.22945312 1.75 3.28515625 C0 1 0 1 0 0 Z " fill="#0F0E0B" transform="translate(184,38)"/>
<path d="M0 0 C1 3 1 3 0.22265625 5.04296875 C-0.16019531 5.75066406 -0.54304687 6.45835937 -0.9375 7.1875 C-1.31777344 7.90292969 -1.69804687 8.61835938 -2.08984375 9.35546875 C-2.54037109 10.16951172 -2.54037109 10.16951172 -3 11 C-3.66 10.01 -4.32 9.02 -5 8 C-3.35 5.36 -1.7 2.72 0 0 Z " fill="#191711" transform="translate(202,143)"/>
<path d="M0 0 C0.33 0.66 0.66 1.32 1 2 C-1.85276137 4.93200474 -4.65079784 7.64315404 -8 10 C-6.34908222 5.70761377 -3.26245434 3.1206085 0 0 Z " fill="#83D579" transform="translate(51,47)"/>
<path d="M0 0 C2.8002232 1.4001116 3.56776098 3.26572551 5 6 C5 6.99 5 7.98 5 9 C3.02 6.69 1.04 4.38 -1 2 C-0.67 1.34 -0.34 0.68 0 0 Z " fill="#0A0B08" transform="translate(124,91)"/>
<path d="M0 0 C3 1 3 1 3 1 Z " fill="#471C1C" transform="translate(97,203)"/>
<path d="M0 0 C2 1 2 1 2 1 Z " fill="#2A2A00" transform="translate(115,203)"/>
<path d="M0 0 C2 1 2 1 2 1 Z " fill="#400000" transform="translate(88,202)"/>
<path d="" fill="#191919" transform="translate(0,0)"/>
<path d="M0 0 C2 1 2 1 2 1 Z " fill="#400000" transform="translate(13,148)"/>
<path d="" fill="#400000" transform="translate(0,0)"/>
<path d="" fill="#000000" transform="translate(0,0)"/>
<path d="" fill="#000000" transform="translate(0,0)"/>
<path d="" fill="#404000" transform="translate(0,0)"/>
<path d="" fill="#400000" transform="translate(0,0)"/>
<path d="M0 0 C2 1 2 1 2 1 Z " fill="#2A2A2A" transform="translate(60,12)"/>
<path d="M0 0 C2 1 2 1 2 1 Z " fill="#404000" transform="translate(54,12)"/>
<path d="" fill="#000000" transform="translate(0,0)"/>
<path d="" fill="#000000" transform="translate(0,0)"/>
<path d="" fill="#000000" transform="translate(0,0)"/>
<path d="" fill="#000000" transform="translate(0,0)"/>
<path d="" fill="#000000" transform="translate(0,0)"/>
<path d="" fill="#800000" transform="translate(0,0)"/>
<path d="" fill="#000000" transform="translate(0,0)"/>
<path d="" fill="#000000" transform="translate(0,0)"/>
<path d="" fill="#000000" transform="translate(0,0)"/>
<path d="" fill="#000000" transform="translate(0,0)"/>
<path d="" fill="#000000" transform="translate(0,0)"/>
<path d="" fill="#000000" transform="translate(0,0)"/>
<path d="" fill="#555555" transform="translate(0,0)"/>
<path d="" fill="#800000" transform="translate(0,0)"/>
<path d="" fill="#000000" transform="translate(0,0)"/>
<path d="" fill="#800000" transform="translate(0,0)"/>
<path d="" fill="#000000" transform="translate(0,0)"/>
<path d="" fill="#555555" transform="translate(0,0)"/>
<path d="" fill="#404040" transform="translate(0,0)"/>
<path d="" fill="#333333" transform="translate(0,0)"/>
<path d="" fill="#000000" transform="translate(0,0)"/>
<path d="" fill="#800000" transform="translate(0,0)"/>
<path d="" fill="#000000" transform="translate(0,0)"/>
<path d="" fill="#000000" transform="translate(0,0)"/>
<path d="" fill="#800000" transform="translate(0,0)"/>
<path d="" fill="#800000" transform="translate(0,0)"/>
<path d="" fill="#000000" transform="translate(0,0)"/>
<path d="" fill="#000000" transform="translate(0,0)"/>
<path d="" fill="#000000" transform="translate(0,0)"/>
<path d="" fill="#000000" transform="translate(0,0)"/>
<path d="" fill="#000000" transform="translate(0,0)"/>
<path d="" fill="#800000" transform="translate(0,0)"/>
<path d="" fill="#800000" transform="translate(0,0)"/>
<path d="" fill="#800000" transform="translate(0,0)"/>
<path d="" fill="#800000" transform="translate(0,0)"/>
<path d="" fill="#000000" transform="translate(0,0)"/>
<path d="" fill="#000000" transform="translate(0,0)"/>
<path d="" fill="#000000" transform="translate(0,0)"/>
<path d="" fill="#000000" transform="translate(0,0)"/>
<path d="" fill="#000000" transform="translate(0,0)"/>
<path d="" fill="#555555" transform="translate(0,0)"/>
<path d="" fill="#000000" transform="translate(0,0)"/>
<path d="" fill="#808000" transform="translate(0,0)"/>
<path d="" fill="#000000" transform="translate(0,0)"/>
<path d="" fill="#800000" transform="translate(0,0)"/>
<path d="" fill="#555555" transform="translate(0,0)"/>
<path d="" fill="#808000" transform="translate(0,0)"/>
<path d="" fill="#555555" transform="translate(0,0)"/>
<path d="" fill="#555555" transform="translate(0,0)"/>
<path d="" fill="#000000" transform="translate(0,0)"/>
<path d="" fill="#000000" transform="translate(0,0)"/>
<path d="" fill="#000000" transform="translate(0,0)"/>
<path d="" fill="#000000" transform="translate(0,0)"/>
<path d="" fill="#000000" transform="translate(0,0)"/>
<path d="" fill="#800000" transform="translate(0,0)"/>
<path d="" fill="#800000" transform="translate(0,0)"/>
<path d="" fill="#800000" transform="translate(0,0)"/>
</svg>
